<svg xmlns="http://www.w3.org/2000/svg" xml:space="preserve" viewBox="0 0 64 64">
  <path fill="#fff" stroke="#000" stroke-width="4.925" d="M7.385 2.46a3.697 3.697 0 0 0-3.692 3.694v35.692a3.697 3.697 0 0 0 3.692 3.693h30.77c.382 0 .741.178.974.48l11.564 15.036a1.246 1.246 0 0 0 2.23-.76V46.77c0-.681.55-1.23 1.231-1.23h2.461a3.697 3.697 0 0 0 3.692-3.694V6.154a3.697 3.697 0 0 0-3.692-3.693z" paint-order="stroke fill markers"/>
  <path fill="#51cf66" d="M39.68 9.56h-3.84V8.28c0-.704-.576-1.28-1.28-1.28h-5.12c-.704 0-1.28.576-1.28 1.28v1.28h-3.84c-2.1 0-3.84 1.74-3.84 3.84v21.76c0 2.1 1.74 3.84 3.84 3.84h15.36c2.1 0 3.84-1.74 3.84-3.84V13.4c0-2.1-1.74-3.84-3.84-3.84zm-2.586 12.096L34.1 31.563c-.064.167-.205.282-.384.282a.357.357 0 0 1-.256-.103l-.013.013-1.881-1.561-3.943 4.8a.44.44 0 0 1-.32.166.421.421 0 0 1-.422-.435c0-.051.013-.09.026-.154l3.878-9.894c.064-.167.205-.282.371-.282.115 0 .218.051.295.115l1.702 1.626 3.187-4.864a.42.42 0 0 1 .346-.192c.243 0 .435.192.435.435 0 .051-.013.09-.026.141zm3.866-3.136H23.04V13.4c0-.73.55-1.28 1.28-1.28h15.36c.73 0 1.28.55 1.28 1.28z"/>
</svg>
